<?xml version="1.0" standalone="no"?><svg xmlns="http://www.w3.org/2000/svg" viewBox="0 0 1440 320"><path fill="#f3f4f5" fill-opacity="1" d="M0,192L30,192C60,192,120,192,180,186.7C240,181,300,171,360,176C420,181,480,203,540,213.3C600,224,660,224,720,213.3C780,203,840,181,900,149.3C960,117,1020,75,1080,48C1140,21,1200,11,1260,21.3C1320,32,1380,64,1410,80L1440,96L1440,0L1410,0C1380,0,1320,0,1260,0C1200,0,1140,0,1080,0C1020,0,960,0,900,0C840,0,780,0,720,0C660,0,600,0,540,0C480,0,420,0,360,0C300,0,240,0,180,0C120,0,60,0,30,0L0,0Z"></path></svg>